<svg xmlns="http://www.w3.org/2000/svg" viewBox="0 0 64 64" role="img" aria-label="HomeSpendAI icon">
  <defs>
    <linearGradient id="bg" x1="0" y1="0" x2="1" y2="1">
      <stop offset="0%" stop-color="#4f46e5"/>
      <stop offset="100%" stop-color="#7c3aed"/>
    </linearGradient>
  </defs>
  <rect x="4" y="4" width="56" height="56" rx="14" fill="url(#bg)"/>
  <path d="M20 19h24v5H20zM20 28h24v5H20zM20 37h15v5H20z" fill="#ffffff" opacity="0.95"/>
  <path d="M42.5 39.5c0 3.3-2.5 5.5-6.2 5.5-2.4 0-4.4-.9-5.8-2.3l2.2-2.6c.9.9 2.2 1.5 3.5 1.5 1.1 0 1.9-.5 1.9-1.3 0-.8-.6-1.2-2.4-1.6-3-.7-4.9-1.8-4.9-4.9 0-2.8 2.3-4.8 5.6-4.8 2.3 0 4.1.7 5.4 1.9l-1.9 2.8c-1-.8-2.1-1.2-3.5-1.2-1 0-1.6.5-1.6 1.2 0 .9.6 1.2 2.6 1.7 3.2.8 4.8 2 4.8 4.8z" fill="#ffffff"/>
</svg>
